<svg width="64" height="64" viewBox="0 0 64 64" fill="none" xmlns="http://www.w3.org/2000/svg">
<path d="M29.84 3.62276L11.1733 11.9161C9.25333 12.7694 8 14.6894 8 16.7961V29.3294C8 44.1294 18.24 57.9694 32 61.3294C45.76 57.9694 56 44.1294 56 29.3294V16.7961C56 14.6894 54.7467 12.7694 52.8267 11.9161L34.16 3.62276C32.8 3.00943 31.2 3.00943 29.84 3.62276ZM24.7733 43.4361L17.8667 36.5294C17.6198 36.2825 17.4239 35.9894 17.2903 35.6669C17.1567 35.3443 17.0879 34.9986 17.0879 34.6494C17.0879 34.3003 17.1567 33.9545 17.2903 33.632C17.4239 33.3094 17.6198 33.0163 17.8667 32.7694C18.1136 32.5225 18.4066 32.3267 18.7292 32.1931C19.0518 32.0595 19.3975 31.9907 19.7467 31.9907C20.0958 31.9907 20.4415 32.0595 20.7641 32.1931C21.0867 32.3267 21.3798 32.5225 21.6267 32.7694L26.6667 37.7828L42.3467 22.1028C42.5936 21.8559 42.8867 21.66 43.2092 21.5264C43.5318 21.3928 43.8775 21.324 44.2267 21.324C44.5758 21.324 44.9215 21.3928 45.2441 21.5264C45.5667 21.66 45.8598 21.8559 46.1067 22.1028C46.3536 22.3496 46.5494 22.6427 46.683 22.9653C46.8166 23.2879 46.8854 23.6336 46.8854 23.9828C46.8854 24.3319 46.8166 24.6776 46.683 25.0002C46.5494 25.3228 46.3536 25.6159 46.1067 25.8628L28.5333 43.4361C28.2866 43.6833 27.9936 43.8794 27.671 44.0133C27.3484 44.1471 27.0026 44.2159 26.6533 44.2159C26.3041 44.2159 25.9583 44.1471 25.6357 44.0133C25.3131 43.8794 25.02 43.6833 24.7733 43.4361Z" fill="#F26157"/>
</svg>
