<svg width="64" height="64" viewBox="0 0 64 64" fill="none" xmlns="http://www.w3.org/2000/svg">
<path d="M12.3093 50.6627C11.0809 50.6627 10.056 50.2521 9.23467 49.4307C8.41333 48.6094 8.00178 47.5836 8 46.3534V17.6387C8 16.4103 8.41156 15.3854 9.23467 14.5641C10.0578 13.7427 11.0818 13.3312 12.3067 13.3294H23.8C24.3742 13.3294 24.9324 13.445 25.4747 13.6761C26.0169 13.9107 26.4809 14.221 26.8667 14.6067L30.9227 18.6627H51.6933C52.92 18.6627 53.9449 19.0743 54.768 19.8974C55.5911 20.7205 56.0018 21.7454 56 22.9721V46.3561C56 47.5827 55.5893 48.6076 54.768 49.4307C53.9467 50.2539 52.9218 50.6645 51.6933 50.6627H12.3093ZM32 43.2761C32.3804 43.2761 32.6978 43.1499 32.952 42.8974C33.2062 42.645 33.3333 42.3276 33.3333 41.9454V30.7454L38.0427 35.4521C38.2916 35.701 38.5964 35.8343 38.9573 35.8521C39.3182 35.8699 39.6418 35.7365 39.928 35.4521C40.2142 35.1676 40.3564 34.853 40.3547 34.5081C40.3529 34.1632 40.2107 33.8494 39.928 33.5667L33.5067 27.1454C33.0764 26.7152 32.5742 26.5001 32 26.5001C31.4258 26.5001 30.9227 26.7152 30.4907 27.1454L24.176 33.4627C23.9253 33.7116 23.792 34.0174 23.776 34.3801C23.76 34.7427 23.8933 35.0663 24.176 35.3507C24.4587 35.6352 24.7724 35.7774 25.1173 35.7774C25.4622 35.7774 25.7769 35.6352 26.0613 35.3507L30.6667 30.7427V41.9427C30.6667 42.3214 30.7938 42.6387 31.048 42.8947C31.3022 43.1507 31.6196 43.2779 32 43.2761Z" fill="#FFC300"/>
</svg>
