<svg width="64" height="64" viewBox="0 0 64 64" fill="none" xmlns="http://www.w3.org/2000/svg">
<path d="M42.6641 15.9961C42.6641 18.8251 41.5403 21.5382 39.5399 23.5386C37.5395 25.539 34.8264 26.6628 31.9974 26.6628C29.1684 26.6628 26.4553 25.539 24.4549 23.5386C22.4545 21.5382 21.3307 18.8251 21.3307 15.9961C21.3307 13.1671 22.4545 10.454 24.4549 8.45363C26.4553 6.45324 29.1684 5.32944 31.9974 5.32944C34.8264 5.32944 37.5395 6.45324 39.5399 8.45363C41.5403 10.454 42.6641 13.1671 42.6641 15.9961ZM41.8054 36.0041C40.5441 36.0174 39.3681 36.0654 38.3441 36.2014C36.6294 36.4334 34.7521 36.9828 33.2027 38.5348C31.6507 40.0841 31.1014 41.9614 30.8721 43.6761C30.6641 45.2174 30.6641 47.1001 30.6641 49.1001V49.5588C30.6641 51.5588 30.6641 53.4414 30.8721 54.9828C31.0321 56.1854 31.3521 57.4681 32.0641 58.6628H31.9974C10.6641 58.6628 10.6641 53.2894 10.6641 46.6628C10.6641 40.0361 20.2161 34.6628 31.9974 34.6628C35.5334 34.6628 38.8694 35.1454 41.8054 36.0041Z" fill="#3993DD"/>
<path fill-rule="evenodd" clip-rule="evenodd" d="M43.9974 58.6628C39.5974 58.6628 37.3974 58.6628 36.0321 57.2948C34.6641 55.9294 34.6641 53.7294 34.6641 49.3294C34.6641 44.9294 34.6641 42.7294 36.0321 41.3641C37.3974 39.9961 39.5974 39.9961 43.9974 39.9961C48.3974 39.9961 50.5974 39.9961 51.9627 41.3641C53.3307 42.7294 53.3307 44.9294 53.3307 49.3294C53.3307 53.7294 53.3307 55.9294 51.9627 57.2948C50.5974 58.6628 48.3974 58.6628 43.9974 58.6628ZM49.2454 47.3188C49.5371 47.027 49.701 46.6313 49.701 46.2188C49.701 45.8062 49.5371 45.4105 49.2454 45.1188C48.9537 44.827 48.558 44.6631 48.1454 44.6631C47.7328 44.6631 47.3371 44.827 47.0454 45.1188L41.9254 50.2388L40.9494 49.2654C40.8049 49.121 40.6335 49.0064 40.4447 48.9282C40.256 48.85 40.0537 48.8098 39.8494 48.8098C39.6451 48.8098 39.4428 48.85 39.2541 48.9282C39.0653 49.0064 38.8938 49.121 38.7494 49.2654C38.6049 49.4099 38.4904 49.5814 38.4122 49.7701C38.334 49.9588 38.2938 50.1611 38.2938 50.3654C38.2938 50.5697 38.334 50.772 38.4122 50.9607C38.4904 51.1495 38.6049 51.321 38.7494 51.4654L40.8241 53.5401C40.9685 53.6847 41.1399 53.7994 41.3287 53.8776C41.5174 53.9559 41.7197 53.9961 41.9241 53.9961C42.1284 53.9961 42.3307 53.9559 42.5195 53.8776C42.7082 53.7994 42.8797 53.6847 43.0241 53.5401L49.2454 47.3188Z" fill="#3993DD"/>
</svg>
