<svg width="64" height="64" viewBox="0 0 64 64" fill="none" xmlns="http://www.w3.org/2000/svg">
<g clip-path="url(#clip0_2044_2136)">
<path d="M48.7635 31.1534C48.4967 27.575 47.2969 24.1289 45.2835 21.1587C43.202 18.0787 40.2116 15.7246 36.729 14.4244C33.2463 13.1243 29.4448 12.9428 25.8542 13.9054C22.2749 14.7217 19.0234 16.5945 16.5214 19.281C14.0194 21.9676 12.3822 25.3438 11.8222 28.972C11.6218 30.3738 11.6218 31.7969 11.8222 33.1987C12.0248 34.6574 12.5635 36.0467 13.3902 37.2654C14.8515 39.3374 17.1102 39.924 18.2542 41.5427C18.6968 42.1694 18.8942 42.9347 18.8115 43.6974C18.7975 43.8876 18.8596 44.0755 18.9841 44.22C19.1086 44.3645 19.2853 44.4537 19.4755 44.468H20.2222C22.1262 44.9943 24.0568 45.3925 26.0142 45.6627C26.8515 45.7694 27.6933 45.8227 28.5395 45.8227H31.0622C33.0035 45.8227 34.9182 45.4494 36.8835 45.1827C36.9937 45.1806 37.1024 45.1564 37.2032 45.1115C37.3039 45.0667 37.3946 45.0021 37.4699 44.9215C37.5452 44.8409 37.6035 44.7461 37.6415 44.6426C37.6795 44.5391 37.6963 44.429 37.6909 44.3188C37.6856 44.2087 37.6581 44.1008 37.6103 44.0014C37.5625 43.9021 37.4952 43.8133 37.4125 43.7404C37.3297 43.6676 37.2332 43.6121 37.1286 43.5772C37.024 43.5423 36.9134 43.5287 36.8035 43.5374L31.0622 43.2174H20.2728C20.2728 42.3374 20.0062 41.4734 19.5022 40.748C18.4115 39.1774 16.2062 38.46 14.8248 36.388C14.217 35.3665 13.8444 34.2223 13.7342 33.0387C13.5681 31.794 13.586 30.5315 13.7875 29.292C14.3812 26.1328 15.9052 23.2229 18.164 20.9356C20.4227 18.6484 23.3133 17.088 26.4648 16.4547C29.5309 15.6612 32.7676 15.8384 35.7288 16.9617C38.69 18.0851 41.2298 20.0993 42.9982 22.7267C44.7326 25.2793 45.7762 28.2376 46.0275 31.3134C46.1905 32.7881 46.0377 34.2805 45.5793 35.6916C45.1209 37.1027 44.3674 38.4 43.3688 39.4974C42.9647 39.9012 42.5392 40.2831 42.0942 40.6414C40.8968 41.5694 39.7022 42.316 38.5315 43.2974C38.0995 43.7267 37.7795 44.2574 37.6008 44.8387C37.3498 45.7116 37.1547 46.5996 37.0168 47.4974C36.9902 48.1107 36.7875 48.6974 36.4302 49.1987C34.7792 50.6139 32.6503 51.3455 30.4782 51.244C27.1521 51.1422 23.8729 50.4308 20.8035 49.1454C21.0435 48.7187 20.8035 47.4174 20.8035 46.62C20.7891 46.3993 20.6896 46.1929 20.5259 46.0441C20.3622 45.8954 20.1472 45.816 19.9262 45.8227C19.7077 45.8371 19.5039 45.9375 19.3594 46.102C19.2149 46.2665 19.1416 46.4816 19.1555 46.7C19.1555 47.764 18.9688 49.1187 19.1555 49.7027C19.1917 49.884 19.2713 50.0539 19.3874 50.1979C19.5034 50.3418 19.6526 50.4555 19.8222 50.5294C23.2302 52.1027 26.9155 53.004 30.6648 53.1854C33.3677 53.3623 36.034 52.486 38.1048 50.74C38.5315 50.3267 38.8515 49.8147 39.0382 49.252C39.3153 48.3826 39.5283 47.494 39.6755 46.5934C39.6622 46.124 39.7635 45.66 39.9688 45.2387C41.1368 44.228 42.3048 43.564 43.4755 42.58C44.0266 42.1729 44.5404 41.7214 45.0168 41.2254C46.3283 39.9142 47.3417 38.3359 47.9883 36.5978C48.6348 34.8598 48.8992 33.0028 48.7635 31.1534Z" fill="#020202"/>
<path d="M25.854 37.2654C26.014 35.724 26.1206 34.156 26.254 32.6147C26.67 33.0449 27.1393 33.4076 27.662 33.7027C28.51 34.2414 29.502 34.508 30.5073 34.476C31.4406 34.4494 32.3526 34.1934 33.1633 33.7294V35.9347C33.1544 37.6663 33.2966 39.3854 33.59 41.092C33.59 41.652 34.918 41.996 35.1846 41.092C35.0229 39.3729 35.0229 37.6547 35.1846 35.9374C35.5544 33.5978 36.0771 31.2938 36.7526 29.0254C36.836 28.7689 36.8285 28.4915 36.7314 28.2399C36.6342 27.9884 36.4534 27.7779 36.2193 27.644C35.9785 27.4618 35.6778 27.3771 35.3773 27.4067C35.0768 27.4364 34.7985 27.5783 34.598 27.804C34.4902 27.9336 34.4005 28.0771 34.3313 28.2307L34.0406 28.812L33.4006 29.852C33.0421 30.3511 32.58 30.7668 32.046 31.0707C31.5702 31.3755 31.0189 31.5418 30.454 31.5507C29.8419 31.5445 29.2506 31.328 28.7793 30.9374C28.2025 30.5193 27.7291 29.9747 27.3953 29.3454L26.918 28.148C26.918 27.908 26.7313 27.324 26.678 27.164C26.554 26.9997 26.3937 26.8662 26.2096 26.7741C26.0254 26.6821 25.8225 26.6339 25.6166 26.6334C25.4043 26.5789 25.1812 26.5823 24.9706 26.6433C24.7601 26.7043 24.5697 26.8205 24.4193 26.98C23.5686 27.884 24.2326 32.9854 23.8593 38.9134C23.9268 39.4876 23.9268 40.0636 23.8593 40.6414C23.8593 41.756 25.1126 42.076 25.4033 40.908C25.686 39.7134 25.8353 38.492 25.854 37.2654ZM8.25929 16.4814C7.93256 16.0837 7.5682 15.7184 7.17129 15.3907L5.94729 14.4867C4.96329 13.8494 3.92863 13.3454 2.89129 12.7614C2.71001 12.6347 2.48664 12.5834 2.26826 12.6182C2.04988 12.6531 1.85354 12.7713 1.72063 12.948C1.59633 13.1249 1.54626 13.3434 1.58116 13.5568C1.61605 13.7701 1.73312 13.9613 1.90729 14.0894C2.70729 14.9134 3.47529 15.7374 4.29929 16.5347C4.64596 16.8814 4.99263 17.2254 5.33663 17.5187C5.68329 17.812 6.05663 18.1294 6.42729 18.42C7.34818 19.0476 8.23352 19.7214 9.08329 20.4414C9.218 20.5741 9.39952 20.6485 9.58863 20.6485C9.77774 20.6485 9.95925 20.5741 10.094 20.4414C10.1731 20.3837 10.2396 20.3105 10.2894 20.2263C10.3393 20.142 10.3714 20.0485 10.3839 19.9514C10.3964 19.8543 10.3889 19.7557 10.362 19.6616C10.3351 19.5675 10.2892 19.4798 10.2273 19.404C9.68477 18.358 9.02449 17.3774 8.25929 16.4814ZM18.838 4.62804C18.9713 5.1187 19.1402 5.59693 19.3446 6.0627C19.5313 6.51604 19.7153 6.9667 19.9526 7.41737C20.5126 8.4547 21.1766 9.38537 21.7606 10.4467C21.8486 10.5985 21.9872 10.7144 22.1521 10.7742C22.317 10.834 22.4978 10.8338 22.6626 10.7737C22.8274 10.7136 22.9657 10.5973 23.0534 10.4454C23.141 10.2934 23.1724 10.1155 23.142 9.9427C22.9695 8.75148 22.7301 7.57094 22.4246 6.4067C22.2913 5.92937 22.1046 5.45204 21.9206 4.97204C21.7652 4.50817 21.5781 4.05555 21.3606 3.61737C20.6753 2.55337 20.0353 1.59604 19.4246 0.561369C19.3891 0.454526 19.332 0.356078 19.257 0.272063C19.1821 0.188049 19.0907 0.12024 18.9886 0.0727973C18.8864 0.0253541 18.7757 -0.000723165 18.6631 -0.00383473C18.5506 -0.00694629 18.4386 0.0129734 18.334 0.0547024C18.1341 0.13805 17.9749 0.296484 17.8907 0.495947C17.8064 0.69541 17.8037 0.919975 17.8833 1.12137C18.2033 2.36937 18.4673 3.5107 18.838 4.62804ZM38.6913 11.6174C38.7857 11.6281 38.8814 11.62 38.9727 11.5936C39.064 11.5672 39.1492 11.523 39.2233 11.4635C39.2974 11.404 39.359 11.3304 39.4046 11.2469C39.4501 11.1635 39.4787 11.0719 39.4886 10.9774C39.862 10.012 40.19 9.02892 40.4726 8.02804C40.606 7.44404 40.6593 6.83337 40.7393 6.24937C40.7618 5.35659 40.859 4.46726 41.03 3.5907C41.1463 3.38985 41.1781 3.151 41.1183 2.9267C41.0586 2.70241 40.9122 2.51104 40.7113 2.3947C40.5104 2.27836 40.2716 2.24657 40.0473 2.30634C39.823 2.3661 39.6316 2.51251 39.5153 2.71337C38.9499 3.53681 38.4945 4.43059 38.1606 5.37204C38.0273 5.77204 37.9206 6.17915 37.8406 6.59337C37.814 7.01115 37.814 7.42804 37.8406 7.84404C37.8406 8.85204 38.054 9.75604 38.134 10.66C38.0166 11.0787 38.2673 11.5134 38.6913 11.6174ZM61.55 19.988C60.2993 19.988 59.1313 19.8014 57.9073 19.8014H56.3393C55.8326 19.8014 55.302 19.988 54.798 20.1214C53.6086 20.5231 52.4655 21.028 51.3686 21.636C51.2612 21.6531 51.1588 21.6935 51.0687 21.7543C50.9786 21.8152 50.9029 21.8951 50.847 21.9884C50.7911 22.0817 50.7563 22.1862 50.7451 22.2944C50.7339 22.4025 50.7466 22.5119 50.7823 22.6146C50.8179 22.7174 50.8756 22.8111 50.9514 22.8891C51.0272 22.9672 51.1191 23.0276 51.2208 23.0663C51.3225 23.1049 51.4314 23.1208 51.5398 23.1128C51.6483 23.1048 51.7537 23.0732 51.8486 23.02C53.0433 22.8334 54.1606 22.8334 55.302 22.7534L56.7366 22.5934L58.2006 22.3267C59.342 22.0867 60.4593 21.796 61.654 21.556C61.8721 21.5295 62.0725 21.4223 62.2156 21.2555C62.3587 21.0887 62.4342 20.8744 62.4273 20.6547C62.3886 20.4547 62.2773 20.276 62.1149 20.1529C61.9525 20.0299 61.7504 19.9712 61.5473 19.988" fill="#0C6FFF"/>
<path d="M34.439 56.0013C33.5555 56.0564 32.6701 56.0564 31.783 56.0013C30.9297 56.0013 30.0817 55.8679 29.1244 55.8146L26.4657 55.6813C24.7137 55.6813 22.9857 55.6813 21.151 55.4946C20.9607 55.4554 20.7625 55.492 20.5987 55.5965C20.4349 55.7011 20.3183 55.8654 20.2737 56.0546C20.2337 56.2453 20.2699 56.4442 20.3745 56.6086C20.4792 56.773 20.644 56.89 20.8337 56.9346C22.3234 57.5261 23.8616 57.9874 25.431 58.3133C26.1155 58.4377 26.8061 58.5088 27.503 58.5266C28.1964 58.5799 28.887 58.5799 29.575 58.5266C31.2941 58.3861 32.9866 58.0937 34.6524 57.6493C34.8692 57.6101 35.0624 57.4885 35.1916 57.3101C35.3208 57.1316 35.3761 56.9101 35.3457 56.6919C35.3121 56.4825 35.1992 56.2939 35.0304 56.1654C34.8616 56.0368 34.6499 55.978 34.439 56.0013ZM31.5724 61.3719C30.682 61.3475 29.794 61.2674 28.9137 61.1319C28.3294 61.0934 27.7433 61.0934 27.159 61.1319C26.095 61.1319 25.111 61.3986 24.0764 61.5053C23.9819 61.4941 23.8862 61.5018 23.7947 61.5279C23.7033 61.554 23.6179 61.5979 23.5435 61.6572C23.4691 61.7164 23.4072 61.7898 23.3614 61.8732C23.3155 61.9565 23.2866 62.048 23.2764 62.1426C23.2678 62.3376 23.3309 62.5291 23.4536 62.6808C23.5764 62.8326 23.7505 62.9342 23.943 62.9666C24.839 63.3079 25.751 63.5995 26.679 63.8413C27.0755 63.9124 27.4746 63.9568 27.8764 63.9746C28.2835 64.0013 28.6906 64.0013 29.0977 63.9746C30.1052 63.7819 31.0814 63.4517 31.999 62.9933C32.214 62.9473 32.402 62.8178 32.5215 62.6333C32.641 62.4487 32.6823 62.2243 32.6364 62.0093C32.5904 61.7943 32.4609 61.6063 32.2763 61.4868C32.0918 61.3673 31.8674 61.326 31.6524 61.3719H31.5724Z" fill="#020202"/>
</g>
<defs>
<clipPath id="clip0_2044_2136">
<rect width="64" height="64" fill="white" transform="translate(0 -0.00390625)"/>
</clipPath>
</defs>
</svg>
