<svg width="64" height="64" viewBox="0 0 64 64" fill="none" xmlns="http://www.w3.org/2000/svg">
<path fill-rule="evenodd" clip-rule="evenodd" d="M19.4878 50.7214C19.585 48.7327 20.3876 46.8438 21.7518 45.3934C22.5731 44.2912 23.4611 43.2441 24.4158 42.2521C25.9331 40.6521 27.4504 39.1348 28.8371 37.9348C29.9038 38.2014 30.9864 38.3614 32.0851 38.4148C32.1972 38.4369 32.3128 38.434 32.4236 38.4061C32.5344 38.3782 32.6377 38.3261 32.726 38.2536C32.8143 38.181 32.8854 38.0898 32.9342 37.9865C32.983 37.8832 33.0083 37.7704 33.0083 37.6561C33.0083 37.5418 32.983 37.429 32.9342 37.3257C32.8854 37.2224 32.8143 37.1312 32.726 37.0586C32.6377 36.9861 32.5344 36.934 32.4236 36.9061C32.3128 36.8783 32.1972 36.8753 32.0851 36.8974C26.1998 36.3374 23.4558 32.6894 23.3491 28.9054C24.1811 29.3321 25.0824 29.5934 26.0131 29.6788C26.4398 29.7463 26.8664 29.7463 27.2931 29.6788C27.7269 29.6308 28.1438 29.5152 28.5438 29.3321C29.5758 28.9748 30.4931 28.3481 31.2078 27.5214C31.2078 27.5214 31.2078 27.3348 31.3411 27.2281L32.3544 27.7881C33.2789 28.197 34.2371 28.5081 35.2291 28.7214C37.0841 29.0623 38.9814 29.1073 40.8504 28.8548C41.0442 30.842 40.4871 32.8297 39.2888 34.4267C38.0905 36.0238 36.3378 37.1145 34.3758 37.4841C34.1509 37.5136 33.9468 37.631 33.8081 37.8105C33.6694 37.99 33.6074 38.2171 33.6355 38.4421C33.6637 38.6672 33.7798 38.872 33.9585 39.0118C34.1371 39.1515 34.3638 39.2149 34.5891 39.1881C35.8702 39.0704 37.1131 38.689 38.2398 38.0681C39.1375 39.0619 39.9535 40.1197 40.6878 41.2414C41.1144 41.8788 41.5144 42.4894 41.8878 43.1561C42.2611 43.8228 42.6344 44.4628 42.9544 45.1561C43.7811 46.7934 44.4584 48.5054 44.9784 50.2681C45.0071 50.4363 45.0858 50.5918 45.2043 50.7146C45.3228 50.8373 45.4755 50.9214 45.6426 50.956C45.8096 50.9905 45.9832 50.9739 46.1406 50.9083C46.2981 50.8427 46.4321 50.7311 46.5251 50.5881C46.6491 50.3994 46.6959 50.1703 46.6558 49.9481C46.4493 47.9796 46.0199 46.041 45.3758 44.1694C45.0916 43.331 44.7346 42.5191 44.3091 41.7428C43.8766 40.9763 43.3692 40.2546 42.7944 39.5881C41.8802 38.583 40.8509 37.6888 39.7278 36.9241C40.9477 35.7518 41.8861 34.3184 42.4727 32.7315C43.0592 31.1445 43.2786 29.4453 43.1144 27.7614C43.1106 26.3916 42.8366 25.0359 42.3081 23.7721C41.7795 22.5082 41.0069 21.3611 40.0344 20.3963C39.062 19.4315 37.9087 18.668 36.6407 18.1495C35.3728 17.631 34.015 17.3678 32.6451 17.3748C29.6882 17.272 26.8082 18.3282 24.6189 20.3183C22.4295 22.3084 21.1041 25.0749 20.9251 28.0281C20.8236 29.9964 21.3253 31.9487 22.3632 33.6242C23.401 35.2996 24.9256 36.6184 26.7331 37.4041C25.1995 38.2657 23.7466 39.2635 22.3918 40.3854C21.1918 41.4201 20.1518 42.6254 19.2984 43.9561C17.9312 45.731 17.2853 47.9571 17.4904 50.1881C17.8371 51.3081 19.5411 51.5214 19.4878 50.7214ZM32.8051 20.3294C34.6896 20.2657 36.5307 20.9031 37.9724 22.1183C39.4142 23.3334 40.3541 25.0401 40.6104 26.9081C39.0092 26.8421 37.4239 26.5641 35.8958 26.0814C35.1122 25.831 34.3461 25.529 33.6024 25.1774C32.8577 24.8678 32.1374 24.5023 31.4478 24.0841C30.3144 23.3443 29.291 22.4483 28.4078 21.4228C29.7668 20.7716 31.2457 20.4085 32.7518 20.3561L32.8051 20.3294ZM26.7331 22.3028C27.4693 23.7846 28.4916 25.106 29.7411 26.1908L29.9011 26.3241C29.5506 26.4738 29.1836 26.5812 28.8078 26.6441C28.374 26.6708 27.9393 26.6708 27.5038 26.6441L26.2238 26.8308C25.3543 27.0715 24.4626 27.2234 23.5624 27.2841C23.9788 25.2928 25.1058 23.5238 26.7331 22.3028Z" fill="#020202"/>
<path fill-rule="evenodd" clip-rule="evenodd" d="M63.1473 31.7828C61.4854 31.5897 59.8109 31.5273 58.1393 31.5961H57.8726C57.9325 24.6577 55.2856 17.9692 50.4939 12.9508C46.3162 9.14221 40.8854 7.00043 35.2326 6.93211H32.9659C32.9767 6.73671 32.9767 6.54085 32.9659 6.34545C32.8326 4.93211 32.5953 3.68145 32.4619 2.16411C32.4693 1.96337 32.3983 1.76762 32.2639 1.61831C32.1296 1.46899 31.9424 1.37783 31.7419 1.36411C31.5384 1.35632 31.3395 1.42647 31.1859 1.56026C31.0323 1.69405 30.9355 1.88141 30.9153 2.08411C30.6486 3.52411 30.3313 4.90811 30.1979 6.34545V7.14545C26.3795 7.58434 22.6763 8.73103 19.2779 10.5268C13.581 13.6769 9.10645 18.6482 6.57127 24.6441C5.44417 27.4144 4.82191 30.364 4.73394 33.3534C3.48061 33.3534 2.28327 33.5668 1.03261 33.7001C0.90607 33.6778 0.776189 33.6835 0.65209 33.7168C0.52799 33.7501 0.412682 33.8101 0.314268 33.8927C0.215853 33.9753 0.13672 34.0785 0.0824273 34.1949C0.0281347 34.3114 0 34.4383 0 34.5668C0 34.6953 0.0281347 34.8222 0.0824273 34.9386C0.13672 35.0551 0.215853 35.1582 0.314268 35.2408C0.412682 35.3234 0.52799 35.3835 0.65209 35.4168C0.776189 35.45 0.90607 35.4557 1.03261 35.4334C2.31261 35.5934 3.69661 35.8601 4.81394 35.9934C5.03234 38.603 5.6811 41.1584 6.73394 43.5561C8.27871 46.6385 10.4978 49.3334 13.2266 51.4409C15.9554 53.5483 19.1238 55.0141 22.4966 55.7294C25.1099 56.3934 27.7953 56.7241 30.4886 56.7161V57.8868C30.6486 59.1934 30.8619 60.5508 31.0219 61.7214C31.0184 61.837 31.0376 61.9522 31.0786 62.0603C31.1196 62.1684 31.1815 62.2674 31.2607 62.3516C31.34 62.4358 31.435 62.5036 31.5405 62.551C31.6459 62.5985 31.7597 62.6247 31.8753 62.6281C31.9894 62.6278 32.1023 62.6046 32.2073 62.5599C32.3123 62.5152 32.4072 62.4499 32.4866 62.3679C32.5659 62.2858 32.6279 62.1887 32.669 62.0822C32.7102 61.9758 32.7295 61.8622 32.7259 61.7481C32.9606 60.4432 33.1295 59.1295 33.2326 57.8068C33.2593 57.3908 33.2593 56.973 33.2326 56.5534C36.3301 56.2751 39.3387 55.3696 42.0753 53.8921C42.1637 53.8476 42.2419 53.7852 42.3052 53.7091C42.3684 53.6329 42.4153 53.5445 42.4428 53.4494C42.4703 53.3543 42.4779 53.2545 42.4652 53.1563C42.4524 53.0582 42.4195 52.9637 42.3686 52.8788C42.273 52.7056 42.1126 52.5775 41.9226 52.5225C41.7326 52.4675 41.5286 52.4902 41.3553 52.5854C38.7839 53.8558 35.9877 54.6078 33.1259 54.7988C33.136 54.6656 33.136 54.5319 33.1259 54.3988C32.8967 53.1553 32.5939 51.9265 32.2193 50.7188C32.202 50.5723 32.1421 50.4341 32.0469 50.3214C31.9517 50.2088 31.8255 50.1266 31.684 50.0851C31.5425 50.0436 31.3918 50.0446 31.2509 50.0881C31.1099 50.1315 30.9849 50.2155 30.8913 50.3294C30.829 50.4061 30.7825 50.4944 30.7546 50.5891C30.7267 50.6839 30.7179 50.7833 30.7286 50.8815C30.7286 52.1881 30.4619 53.5455 30.4086 54.7428V55.1161C27.8816 55.1017 25.3697 54.7245 22.9499 53.9961C20.5604 53.1255 18.2593 52.029 16.0779 50.7214C14.3989 49.948 12.8952 48.8404 11.6586 47.4663C10.4221 46.0922 9.47864 44.4804 8.88594 42.7294C8.03924 40.6758 7.52698 38.4998 7.36861 36.2841H8.08861C9.71609 36.1037 11.322 35.7643 12.8833 35.2708C13.0641 35.2151 13.2183 35.0951 13.3165 34.9334C13.4148 34.7717 13.4504 34.5796 13.4166 34.3934C13.4069 34.2961 13.3774 34.2017 13.33 34.1161C13.2826 34.0306 13.2183 33.9555 13.1409 33.8956C13.0636 33.8357 12.9748 33.7922 12.8801 33.7678C12.7853 33.7434 12.6866 33.7385 12.5899 33.7534C11.2033 33.7534 9.92327 33.5134 8.51527 33.4068H7.26194C7.40388 30.8027 7.99949 28.2433 9.02194 25.8441C11.3637 20.4369 15.4521 15.9719 20.6326 13.1641C23.6179 11.5728 26.8668 10.5356 30.2219 10.1028C30.2219 11.4894 30.5419 12.7668 30.6753 14.2574C30.6679 14.4865 30.7502 14.7093 30.9045 14.8786C31.0589 15.0479 31.2732 15.1503 31.5019 15.1641C31.7334 15.1645 31.9563 15.0763 32.1249 14.9177C32.2935 14.759 32.395 14.5419 32.4086 14.3108C32.5926 12.8708 32.8059 11.4868 32.9126 10.0761C32.8982 10.0057 32.8982 9.93316 32.9126 9.86278H35.0966C40.0859 9.83488 44.9147 11.6246 48.6806 14.8974C50.909 17.1391 52.6726 19.7989 53.8702 22.724C55.0678 25.6491 55.6758 28.782 55.6593 31.9428H55.2326C53.7926 32.1561 52.4353 32.5561 50.9713 32.6628C50.7677 32.655 50.5688 32.7251 50.4152 32.8589C50.2616 32.9927 50.1648 33.1801 50.1446 33.3828C50.1436 33.5818 50.2168 33.774 50.35 33.922C50.4831 34.0699 50.6666 34.1629 50.8646 34.1828C52.4148 34.5149 53.994 34.6927 55.5793 34.7134C55.4552 38.144 54.5424 41.4999 52.9118 44.5207C51.2811 47.5414 48.9765 50.146 46.1766 52.1321C46.0263 52.2184 45.9059 52.3484 45.8313 52.5047C45.7566 52.6611 45.7314 52.8365 45.7589 53.0076C45.7864 53.1787 45.8653 53.3374 45.9852 53.4625C46.1051 53.5876 46.2602 53.6733 46.4299 53.7081C46.6536 53.7582 46.8881 53.7189 47.0833 53.5988C50.2174 51.4647 52.8118 48.6304 54.6608 45.3201C56.5099 42.0098 57.563 38.3145 57.7366 34.5268L58.8833 34.3668C60.3473 34.1001 61.7046 33.7268 63.1446 33.5134C63.2587 33.5213 63.3732 33.5047 63.4803 33.4646C63.5874 33.4245 63.6847 33.3619 63.7655 33.281C63.8464 33.2002 63.909 33.1029 63.9491 32.9958C63.9892 32.8887 64.0058 32.7742 63.9979 32.6601C64.0051 32.5451 63.9881 32.4298 63.948 32.3218C63.908 32.2137 63.8458 32.1152 63.7654 32.0326C63.6851 31.95 63.5884 31.8851 63.4814 31.842C63.3745 31.799 63.2625 31.7788 63.1473 31.7828Z" fill="#0C6FFF"/>
</svg>
