<svg width="64" height="64" viewBox="0 0 64 64" fill="none" xmlns="http://www.w3.org/2000/svg">
<g clip-path="url(#clip0_2044_2123)">
<path fill-rule="evenodd" clip-rule="evenodd" d="M14.9047 30.612C15.0363 32.2369 15.303 33.8387 15.7047 35.4173C16.4007 39.1 16.7474 41.5027 17.4141 44.172C17.8141 45.852 18.3474 47.6413 19.1234 49.9107C19.1904 50.1004 19.3264 50.2578 19.5043 50.3517C19.6822 50.4456 19.889 50.4691 20.0834 50.4173C20.277 50.3559 20.4387 50.2208 20.5335 50.0412C20.6283 49.8615 20.6486 49.6518 20.5901 49.4573C19.9501 47.2173 19.5501 45.4547 19.2301 43.772C18.7767 41.1027 18.5634 38.7267 18.1367 35.044C18.1367 34.164 17.6567 32.6147 17.6034 31.1987C17.5179 30.6647 17.6217 30.1176 17.8967 29.652C18.0567 29.4387 18.4034 29.3853 18.7501 29.2787C19.2763 29.1187 19.8096 28.9942 20.3501 28.9053L28.4914 27.3027C31.1607 26.7427 33.8301 26.076 36.3661 25.516C38.0837 25.1265 39.8214 24.8318 41.5714 24.6333C42.1314 24.6333 43.2781 24.2867 44.2407 24.1533C44.6941 24.1533 45.0941 24.02 45.3341 24.1533C45.8727 24.6467 46.2407 25.3027 46.3767 26.02C46.6079 26.7578 46.7856 27.5053 46.9101 28.2627C46.3234 28.2627 45.7634 28.396 45.1767 28.5293C44.0034 28.7693 42.8541 29.0627 41.7047 29.3293L38.0221 30.2653C37.3287 30.4307 36.6621 30.6707 36.0221 30.9853C35.5154 31.2787 35.079 31.652 34.7127 32.1053C34.3291 32.6555 34.0584 33.2763 33.9165 33.9318C33.7746 34.5873 33.7643 35.2645 33.8861 35.924C34.0834 37.228 34.7367 38.4173 35.7261 39.2867C36.6701 40.0253 37.8381 40.412 39.0354 40.38C40.3687 40.2609 41.6861 40.0476 42.9874 39.74L47.5261 38.8333C48.063 38.7907 48.5874 38.684 49.0994 38.5133C49.3292 38.4165 49.5373 38.2745 49.7113 38.0959C49.8854 37.9173 50.0219 37.7056 50.1127 37.4733C50.2781 36.9107 50.3341 36.3213 50.2727 35.7373C50.1088 34.6979 49.8681 33.672 49.5527 32.668L48.9661 29.9987C48.8092 28.2852 48.5059 26.5884 48.0594 24.9267C47.7926 24.0627 47.2946 23.2881 46.6194 22.6867C46.0341 22.3012 45.3406 22.1133 44.6407 22.1507C43.5403 22.1987 42.447 22.3142 41.3607 22.4973H39.8114C39.801 22.3381 39.7416 22.186 39.6413 22.0619C39.5411 21.9378 39.4049 21.8477 39.2514 21.804C36.6141 20.905 33.9417 20.1124 31.2407 19.428C29.4274 19.0013 27.5874 18.628 25.7421 18.3347C25.0085 18.2251 24.2697 18.1539 23.5287 18.1213C23.6283 18.0782 23.7164 18.0123 23.7859 17.929C23.8554 17.8456 23.9043 17.7471 23.9287 17.6413L25.6621 13.876C25.6621 13.876 25.9287 13.5293 26.0354 13.316C26.1592 13.3907 26.2943 13.4447 26.4354 13.476C26.9261 13.5596 27.407 13.684 27.8781 13.8493C28.5999 14.0627 29.303 14.3293 29.9874 14.6493L33.6967 16.2493C35.5394 17.0253 37.4087 17.7453 39.2221 18.6013C40.5021 19.188 41.8914 19.828 43.0407 20.5213C43.1348 20.586 43.2408 20.6311 43.3526 20.654C43.4643 20.6769 43.5796 20.6772 43.6914 20.6549C43.8033 20.6325 43.9096 20.5879 44.0039 20.5237C44.0983 20.4596 44.1788 20.3772 44.2407 20.2813C44.3617 20.0861 44.4015 19.8513 44.3517 19.6271C44.3018 19.4028 44.1663 19.207 43.9741 19.0813C41.9854 17.6303 39.8986 16.3187 37.7287 15.156C35.5954 14.0093 33.3767 13.0227 31.1607 11.9827C30.4588 11.6908 29.737 11.4493 29.0007 11.26C28.2104 11.0896 27.4062 10.9914 26.5981 10.9667C26.1635 10.9255 25.726 10.9255 25.2914 10.9667C25.0366 10.9962 24.7906 11.0779 24.5687 11.2067C24.2954 11.3501 24.0721 11.5733 23.9287 11.8467C23.7687 12.22 23.6354 12.8333 23.5554 13.0733L22.4087 17.1853C22.3486 17.3693 22.3622 17.5695 22.4468 17.7436C22.5314 17.9177 22.6803 18.0522 22.8621 18.1187H21.2594C20.8954 18.0937 20.5301 18.0937 20.1661 18.1187C19.9443 18.147 19.7283 18.21 19.5261 18.3053C19.0867 18.5643 18.7547 18.972 18.5901 19.4547C18.4034 20.0698 18.2523 20.692 18.1367 21.3213L16.5314 27.0627C16.2221 27.2422 15.9465 27.4645 15.7047 27.7293C15.1054 28.5653 14.8219 29.5867 14.9047 30.612ZM48.1394 36.2973L47.1527 36.484L42.7207 37.0173C41.5207 37.2573 40.3101 37.4173 39.0887 37.4973C38.5626 37.517 38.0454 37.3572 37.6221 37.044C37.1778 36.6163 36.8872 36.0538 36.7954 35.444C36.7064 35.1678 36.6747 34.8764 36.7022 34.5875C36.7297 34.2986 36.8159 34.0184 36.9554 33.764C37.1236 33.5069 37.3526 33.2954 37.6221 33.148C38.0132 32.9258 38.4221 32.748 38.8487 32.6147L42.3207 31.3613C43.4407 30.988 44.5341 30.5613 45.6541 30.2387C46.1732 30.0787 46.6985 29.9453 47.2301 29.8387V30.3987L47.5767 33.068C47.7634 33.8698 47.9056 34.6787 48.0034 35.4947C48.0923 35.7578 48.1394 36.0253 48.1394 36.2973ZM20.4034 22.2573C20.7234 21.404 20.8834 21.004 21.4967 20.9773C22.1296 20.9347 22.7607 20.9347 23.3901 20.9773C24.0567 20.9773 24.6994 20.9773 25.3394 21.164C28.0087 21.4573 30.6781 21.8573 33.3474 22.3373C34.2807 22.4973 35.1874 22.7107 36.0167 22.8973H35.7234C33.0567 23.3507 30.3847 23.9373 27.7154 24.4173L19.4941 26.02L18.5874 26.3133L20.4034 22.2573ZM50.6221 43.7987C50.7069 42.5558 50.6171 41.3073 50.3554 40.0893C50.3321 39.9182 50.259 39.7577 50.1452 39.6279C50.0313 39.498 49.8818 39.4045 49.7152 39.359C49.5486 39.3135 49.3723 39.3181 49.2083 39.3721C49.0443 39.4261 48.8997 39.5271 48.7927 39.6627C48.7226 39.7524 48.6711 39.8552 48.6414 39.9651C48.6116 40.0751 48.6041 40.1898 48.6194 40.3027C48.7794 41.3453 48.7794 42.4093 48.6194 43.4493C48.5089 43.9803 48.2391 44.465 47.8461 44.8387C47.1051 45.3351 46.2685 45.6712 45.3901 45.8253C43.8647 46.1631 42.3252 46.4218 40.7714 46.6013C38.1021 47.0813 35.6194 47.428 33.0834 47.8813C29.2141 48.6013 25.3954 49.4573 21.5527 50.364C21.4529 50.3833 21.3579 50.422 21.2731 50.478C21.1882 50.534 21.1153 50.6061 21.0583 50.6903C20.9433 50.8603 20.9005 51.0691 20.9394 51.2707C20.9783 51.4722 21.0957 51.6501 21.2657 51.7651C21.4358 51.8801 21.6445 51.9229 21.8461 51.884C25.7154 51.3773 29.6141 51.1373 33.5101 50.6573C36.1794 50.3373 38.6887 49.884 41.2781 49.4307C43.1511 49.0916 44.9976 48.6193 46.8034 48.0173C47.7287 47.692 48.5767 47.172 49.2861 46.4947C50.0114 45.764 50.4834 44.8173 50.6221 43.7987Z" fill="#020202"/>
<path fill-rule="evenodd" clip-rule="evenodd" d="M14.8267 8.75076C14.94 8.69351 15.0397 8.6124 15.1187 8.51299C15.1978 8.41359 15.2544 8.29825 15.2846 8.17491C15.3149 8.05156 15.3181 7.92312 15.294 7.79842C15.2699 7.67371 15.2192 7.5557 15.1451 7.45249C15.0711 7.34927 14.9757 7.26329 14.8653 7.20047C14.7549 7.13764 14.6322 7.09945 14.5057 7.08852C14.3792 7.07758 14.2518 7.09417 14.1323 7.13714C14.0127 7.18011 13.9039 7.24844 13.8133 7.33743C12.5796 7.95077 11.4053 8.66188 10.2907 9.47077C9.80139 9.8298 9.3372 10.2218 8.90133 10.6441C8.48093 11.0628 8.08895 11.5092 7.728 11.9801C6.928 13.1303 6.23378 14.341 5.64533 15.6121C5.53987 15.784 5.50325 15.9895 5.54281 16.1873C5.58237 16.3851 5.69518 16.5606 5.85867 16.6788C6.02551 16.7935 6.23068 16.8382 6.43013 16.8033C6.62957 16.7684 6.80737 16.6567 6.92533 16.4921C7.832 15.5534 8.784 14.6637 9.78133 13.8228L10.9547 12.7028L12.104 11.5268C12.984 10.6468 13.8373 9.63343 14.8267 8.75076ZM24.5173 4.10543C25.866 3.77359 27.241 3.55946 28.6267 3.46543L30.6293 3.1721C31.296 3.1721 31.9627 2.9321 32.656 2.87876C33.352 2.82543 34.072 2.87876 34.7947 2.87876C34.9054 2.89762 35.0187 2.89372 35.1279 2.86732C35.237 2.84091 35.3396 2.79254 35.4295 2.72517C35.5193 2.65779 35.5945 2.57282 35.6504 2.47544C35.7063 2.37806 35.7418 2.27031 35.7547 2.15876C35.7736 2.04654 35.7699 1.93165 35.7438 1.82088C35.7177 1.7101 35.6696 1.60567 35.6026 1.51373C35.5355 1.4218 35.4507 1.34421 35.3531 1.28554C35.2556 1.22686 35.1473 1.18829 35.0347 1.1721C33.7238 0.753931 32.3722 0.475932 31.0027 0.342765C30.416 0.289432 29.8293 0.289432 29.2427 0.342765C28.6418 0.404987 28.0542 0.529432 27.48 0.716098C26.2155 1.19256 25.0215 1.83846 23.9307 2.6361C23.7479 2.72293 23.6064 2.87795 23.5366 3.06789C23.4668 3.25784 23.4743 3.46757 23.5573 3.6521C23.6293 3.8359 23.7688 3.98524 23.9473 4.06952C24.1257 4.15381 24.3297 4.16665 24.5173 4.10543ZM44.136 5.1481C44.7191 5.50543 45.2702 5.90543 45.7893 6.3481C46.216 6.69477 46.5387 7.09477 46.9387 7.44143L48.0587 8.53477C49.3191 9.6441 50.512 10.8192 51.6373 12.0601C51.7151 12.1808 51.822 12.28 51.9482 12.3484C52.0745 12.4168 52.216 12.4522 52.3595 12.4514C52.5031 12.4506 52.6442 12.4136 52.7696 12.3438C52.8951 12.274 53.0009 12.1737 53.0773 12.0521C53.1703 11.9047 53.2174 11.7329 53.2127 11.5587C53.2079 11.3845 53.1515 11.2156 53.0507 11.0734C52.4879 9.87927 51.8372 8.72855 51.104 7.63076C50.7659 7.15021 50.3819 6.70367 49.9573 6.29743C49.5308 5.91909 49.065 5.58743 48.568 5.3081C47.3616 4.60052 46.043 4.10449 44.6693 3.84143C44.478 3.77904 44.2702 3.79105 44.0873 3.87507C43.9044 3.95909 43.76 4.10895 43.6827 4.29476C43.6501 4.46734 43.6773 4.64586 43.7597 4.80095C43.842 4.95604 43.9748 5.07847 44.136 5.1481ZM61.808 26.6628C61.8638 26.8726 61.996 27.0539 62.1788 27.1711C62.3615 27.2884 62.5815 27.333 62.7954 27.2962C63.0094 27.2594 63.2018 27.1439 63.3349 26.9724C63.468 26.8009 63.5322 26.5858 63.5147 26.3694C63.4795 25.012 63.3098 23.6614 63.008 22.3374C62.7486 21.206 62.3264 20.1183 61.7547 19.1081C61.0322 18.0021 60.2197 16.9577 59.3253 15.9854C59.2736 15.9006 59.2054 15.8269 59.1247 15.7687C59.0441 15.7106 58.9527 15.6691 58.8558 15.6467C58.7589 15.6244 58.6586 15.6216 58.5606 15.6385C58.4627 15.6555 58.3691 15.6918 58.2853 15.7454C58.1149 15.8505 57.9919 16.0176 57.9421 16.2116C57.8924 16.4056 57.9198 16.6113 58.0187 16.7854C58.5787 18.1188 58.8987 19.4548 59.3787 20.8948C59.672 21.6681 60.0187 22.4441 60.3653 23.2174C60.9058 24.341 61.3884 25.4894 61.808 26.6628ZM63.5413 35.9241C63.5624 35.8124 63.5585 35.6974 63.53 35.5874C63.5015 35.4773 63.4491 35.3749 63.3766 35.2874C63.304 35.1999 63.213 35.1295 63.1102 35.0812C63.0073 35.0328 62.895 35.0078 62.7813 35.0078C62.6677 35.0078 62.5554 35.0328 62.4525 35.0812C62.3496 35.1295 62.2587 35.1999 62.1861 35.2874C62.1135 35.3749 62.0611 35.4773 62.0327 35.5874C62.0042 35.6974 62.0003 35.8124 62.0213 35.9241C61.7013 37.2041 61.328 38.3801 61.088 39.5801C61.088 40.1668 60.928 40.7534 60.848 41.3161C60.768 41.8761 60.848 42.4361 60.6347 43.0228C60.5227 43.5899 60.3627 44.1419 60.1547 44.6788C60.0753 44.7998 60.0279 44.939 60.0171 45.0833C60.0063 45.2277 60.0324 45.3724 60.093 45.5039C60.1535 45.6353 60.2465 45.7493 60.3632 45.8349C60.4799 45.9205 60.6164 45.9751 60.76 45.9934C60.9276 46.0191 61.099 45.9942 61.2524 45.922C61.4059 45.8498 61.5343 45.7336 61.6213 45.5881C62.4213 44.6494 63.0453 43.5721 63.4613 42.4094C63.6942 41.8957 63.8631 41.3623 63.968 40.8094C64.0091 40.3125 64.0091 39.813 63.968 39.3161C63.888 38.1783 63.7458 37.0477 63.5413 35.9241ZM56.2827 51.4868C55.2693 52.0734 54.2267 52.5534 53.2373 53.1401C52.8226 53.3936 52.422 53.6695 52.0373 53.9668C51.6356 54.2512 51.2533 54.5543 50.8907 54.8761C50.0107 55.5961 49.208 56.3694 48.2213 57.0894C48.1027 57.1358 47.9956 57.2073 47.9074 57.299C47.8191 57.3908 47.7518 57.5006 47.7101 57.6209C47.6684 57.7411 47.6533 57.8691 47.6658 57.9958C47.6783 58.1224 47.7182 58.2449 47.7827 58.3547C47.8472 58.4645 47.9347 58.559 48.0392 58.6316C48.1437 58.7043 48.2628 58.7535 48.3882 58.7756C48.5135 58.7978 48.6422 58.7926 48.7653 58.7602C48.8885 58.7278 49.0031 58.6691 49.1013 58.5881C50.224 58.1746 51.3202 57.6928 52.384 57.1454C52.8373 56.9054 53.2729 56.6388 53.6907 56.3454C54.1102 56.0468 54.5022 55.7179 54.8667 55.3588C55.7058 54.5161 56.4889 53.6254 57.216 52.6868C57.3529 52.543 57.4293 52.352 57.4293 52.1534C57.4293 51.9549 57.3529 51.7639 57.216 51.6201C57.0946 51.5019 56.9388 51.4253 56.7711 51.4013C56.6033 51.3774 56.4323 51.4073 56.2827 51.4868ZM42.6133 60.6414H38.88C38.1629 60.698 37.4498 60.7959 36.744 60.9348C35.6773 61.0948 34.6347 61.3614 33.5387 61.4948C33.312 61.4948 33.0946 61.5848 32.9343 61.7451C32.774 61.9054 32.684 62.1228 32.684 62.3494C32.684 62.5761 32.774 62.7935 32.9343 62.9538C33.0946 63.1141 33.312 63.2041 33.5387 63.2041C34.664 63.4565 35.8036 63.6165 36.9573 63.6841C37.9387 63.7108 38.9076 63.613 39.864 63.3908C40.9396 63.0441 41.9902 62.6352 43.016 62.1641C43.115 62.1479 43.2097 62.1119 43.2944 62.0583C43.3792 62.0047 43.4523 61.9346 43.5093 61.8521C43.5666 61.7699 43.6067 61.677 43.6273 61.579C43.648 61.4809 43.6486 61.3797 43.6293 61.2814C43.6112 61.1696 43.5695 61.0629 43.507 60.9683C43.4445 60.8738 43.3627 60.7936 43.2669 60.7331C43.171 60.6726 43.0635 60.6332 42.9513 60.6174C42.8391 60.6016 42.7248 60.6098 42.616 60.6414M24.1973 61.2014C22.6773 60.6414 21.528 59.9214 20.112 59.3081L17.6587 58.3214C16.4293 57.8148 15.176 57.3854 13.8933 56.7721C13.798 56.6879 13.6856 56.6254 13.5638 56.5889C13.442 56.5523 13.3137 56.5426 13.1877 56.5604C13.0618 56.5782 12.9413 56.623 12.8343 56.6919C12.7274 56.7608 12.6367 56.852 12.5684 56.9593C12.5002 57.0666 12.4559 57.1874 12.4388 57.3134C12.4217 57.4394 12.4322 57.5676 12.4694 57.6893C12.5066 57.8109 12.5697 57.923 12.6544 58.0178C12.7391 58.1127 12.8434 58.1881 12.96 58.2388C14.0178 59.1508 15.1387 59.9783 16.3227 60.7214C16.8471 61.0432 17.3893 61.3277 17.9493 61.5748C18.5004 61.8237 19.0702 62.0192 19.6587 62.1614C21.0609 62.4837 22.4922 62.6633 23.9307 62.6974C24.1285 62.7372 24.334 62.6982 24.5034 62.5886C24.6728 62.479 24.7926 62.3075 24.8373 62.1108C24.8564 62.0091 24.8549 61.9045 24.8329 61.8034C24.8109 61.7023 24.7688 61.6066 24.7091 61.5221C24.6494 61.4375 24.5733 61.3658 24.4854 61.3112C24.3975 61.2566 24.2996 61.2175 24.1973 61.2014ZM6.20533 48.0174C5.88533 47.3241 5.48533 46.6548 5.08533 45.9614C4.68533 45.2681 3.832 43.9588 3.32533 42.8921C3.27053 42.7292 3.16921 42.5859 3.03389 42.4799C2.89857 42.3739 2.73516 42.3098 2.56386 42.2957C2.39255 42.2815 2.22084 42.3178 2.06993 42.4001C1.91902 42.4824 1.79551 42.6071 1.71467 42.7588C1.66221 42.8609 1.63093 42.9727 1.62268 43.0872C1.61443 43.2018 1.62939 43.3168 1.66667 43.4254C1.86044 44.6965 2.16267 45.9419 2.57333 47.1614C2.74578 47.6663 2.95111 48.1552 3.18933 48.6281C3.43467 49.0939 3.71022 49.5392 4.016 49.9641C4.78044 50.9241 5.61689 51.8139 6.52533 52.6334C6.57548 52.7326 6.64639 52.8197 6.73325 52.889C6.8201 52.9582 6.92085 53.0079 7.02864 53.0348C7.13644 53.0616 7.24874 53.0649 7.35792 53.0444C7.4671 53.0239 7.57058 52.9802 7.66133 52.9161C7.75211 52.8525 7.82816 52.7701 7.88432 52.6745C7.94047 52.579 7.97542 52.4724 7.9868 52.3622C7.99818 52.2519 7.98573 52.1405 7.95027 52.0355C7.91482 51.9304 7.85721 51.8342 7.78133 51.7534C7.168 50.6868 6.79467 49.3508 6.208 48.0174M2.096 34.8308C2.23822 33.4263 2.46933 32.0379 2.78933 30.6654C2.78933 29.9721 2.976 29.2788 3.056 28.6121C3.136 27.9454 3.18933 27.1961 3.296 26.5028C3.40267 25.8094 3.536 25.1152 3.696 24.4201C3.73802 24.315 3.75894 24.2027 3.75756 24.0896C3.75618 23.9765 3.73253 23.8647 3.68796 23.7607C3.64339 23.6567 3.57877 23.5625 3.49779 23.4835C3.41681 23.4044 3.32106 23.3421 3.216 23.3001C3.11094 23.2581 2.99864 23.2372 2.88549 23.2385C2.77235 23.2399 2.66059 23.2636 2.55659 23.3081C2.45259 23.3527 2.35838 23.4173 2.27936 23.4983C2.20033 23.5793 2.13802 23.675 2.096 23.7801C1.41088 24.9518 0.8556 26.1947 0.44 27.4868C0.247981 28.0877 0.114034 28.7056 0.04 29.3321C-0.0133333 29.9188 -0.0133333 30.5054 0.04 31.0921C0.0986667 32.4574 0.322667 33.8121 0.706667 35.1241C0.733351 35.3268 0.836652 35.5116 0.995351 35.6406C1.15405 35.7695 1.3561 35.8328 1.56 35.8174C1.66129 35.7901 1.75595 35.7424 1.83822 35.6772C1.92048 35.6121 1.98864 35.5309 2.03853 35.4386C2.08842 35.3463 2.11901 35.2448 2.12843 35.1403C2.13785 35.0358 2.12858 34.9305 2.096 34.8308Z" fill="#0C6FFF"/>
</g>
<defs>
<clipPath id="clip0_2044_2123">
<rect width="64" height="64" fill="white" transform="translate(0 -0.00390625)"/>
</clipPath>
</defs>
</svg>
