<svg width="64" height="64" viewBox="0 0 64 64" fill="none" xmlns="http://www.w3.org/2000/svg">
<g clip-path="url(#clip0_2044_2130)">
<path fill-rule="evenodd" clip-rule="evenodd" d="M8.80088 39.5267C8.57312 39.5442 8.36036 39.647 8.20515 39.8146C8.04993 39.9822 7.9637 40.2023 7.9637 40.4307C7.9637 40.6591 8.04993 40.8791 8.20515 41.0468C8.36036 41.2144 8.57312 41.3172 8.80088 41.3347C21.6809 41.5214 44.2942 38.516 49.1636 41.068C49.3236 41.068 49.5902 41.6014 49.8542 41.7347C48.0462 44.2094 41.7129 43.3854 38.4409 43.6787C32.9076 44.212 27.2942 43.8654 21.7316 44.132C14.6809 44.4227 8.85422 46.124 3.10755 45.0867C1.11288 44.7134 1.69955 42.428 3.58755 42.108C3.58755 42.108 6.83288 41.2814 6.85955 41.1747C6.89018 41.032 6.8859 40.884 6.84707 40.7433C6.80825 40.6026 6.73602 40.4733 6.63654 40.3665C6.53706 40.2597 6.41326 40.1785 6.27566 40.1298C6.13807 40.081 5.99075 40.0663 5.84622 40.0867C5.20888 40.0867 3.56088 40.4067 3.18755 40.46C-0.537782 41.1507 -1.36178 46.044 2.68088 46.9507C4.59754 47.3508 6.55244 47.5386 8.51022 47.5107C8.51022 47.7747 5.84888 55.9694 5.20888 59.508C4.35822 64.244 10.9822 65.068 12.7662 60.892C13.4969 58.9756 14.1173 57.0245 14.6276 55.0387C15.3458 55.1454 16.064 55.1454 16.7822 55.0387C20.841 55.5503 24.9377 55.6931 29.0222 55.4654C37.0036 55.0387 35.0089 55.4654 37.0036 55.252C38.9982 55.0387 37.5102 53.468 40.3556 60.8387C42.1129 64.988 48.7369 64.1907 47.8862 59.428C47.3529 56.9267 44.7449 47.4547 44.1876 46.4707C45.6381 46.4592 47.0797 46.2438 48.4702 45.8307C50.9716 45.06 53.6595 42.612 52.5689 40.3774C49.8009 34.1267 25.5369 39.2867 8.80088 39.5267ZM10.1609 59.7214C9.73422 60.7054 8.16088 60.892 8.29422 59.988C9.84088 50.5427 10.1342 48.4414 10.4249 47.4547C11.8356 47.4547 13.2462 47.2947 14.6276 47.1614C13.4851 51.4636 11.993 55.6645 10.1609 59.7214ZM36.7609 53.3347C30.0302 52.748 34.7662 52.0307 15.1849 53.3347C15.6649 51.34 16.1182 49.2654 16.5156 47.084C24.4969 46.3907 29.2062 47.244 36.8409 46.844C37.2676 49.1054 37.7209 51.26 38.2516 53.3347C37.7716 53.4307 37.2782 53.4014 36.8142 53.2547L36.7609 53.3347ZM45.1689 59.9854C45.1689 60.892 43.7316 60.6787 43.3076 59.7187C41.4153 55.4995 39.8758 51.1308 38.7049 46.6574H42.8009C42.7209 46.844 42.7209 43.996 45.2222 59.988L45.1689 59.9854Z" fill="#020202"/>
<path fill-rule="evenodd" clip-rule="evenodd" d="M4.35933 39.0492C4.40144 39.2476 4.51874 39.4219 4.68661 39.5356C4.85449 39.6493 5.05988 39.6935 5.25967 39.659C5.45947 39.6245 5.63813 39.5139 5.75814 39.3505C5.87816 39.1871 5.93019 38.9835 5.90333 38.7826C5.73735 35.7399 5.80867 32.6889 6.11667 29.6572C5.97691 26.1557 6.13749 22.6487 6.59667 19.1746C7.234 16.5132 6.86067 17.0199 12.5007 16.1932C17.2859 15.2999 22.1354 14.7934 27.002 14.6786C27.2336 14.666 27.4516 14.5651 27.6111 14.3967C27.7706 14.2283 27.8595 14.0052 27.8595 13.7732C27.8595 13.5413 27.7706 13.3182 27.6111 13.1498C27.4516 12.9813 27.2336 12.8805 27.002 12.8679H25.9353C26.0662 12.7924 26.1746 12.6834 26.2496 12.5523C26.3246 12.4211 26.3634 12.2723 26.362 12.1212C26.5038 10.7506 26.4136 9.36591 26.0953 8.02524C24.3673 2.03857 18.6207 5.01991 19.4713 12.8946C17.8473 12.8946 8.67133 13.5612 7.098 13.9879C3.29533 14.9959 3.93533 17.1772 3.642 18.4812C3.11933 22.1879 3.11933 25.9479 3.642 29.6546C3.64733 32.8048 3.88733 35.9364 4.362 39.0492M23.25 8.02257C24.8447 13.1586 24.714 12.7852 24.9513 12.9452H21.6553C21.7587 11.1949 22.3059 9.50014 23.25 8.02257ZM48.498 29.8172C48.4862 29.6134 48.3969 29.4218 48.2485 29.2816C48.1 29.1415 47.9035 29.0634 47.6993 29.0634C47.4952 29.0634 47.2987 29.1415 47.1502 29.2816C47.0017 29.4218 46.9124 29.6134 46.9007 29.8172C46.3269 30.8605 46.026 32.0319 46.026 33.2226C46.026 34.4132 46.3269 35.5846 46.9007 36.6279C47.5407 38.1159 48.898 37.1612 48.7913 36.6279C48.738 32.5559 49.5647 33.9426 48.498 29.8172Z" fill="#0C6FFF"/>
<path fill-rule="evenodd" clip-rule="evenodd" d="M63.5803 7.57469C62.7803 6.26803 61.479 5.79069 57.9403 3.95603C48.815 0.470693 48.3617 0.0440263 47.6977 0.604026C47.615 0.685852 47.5494 0.783248 47.5047 0.890583C47.4599 0.997917 47.4368 1.11306 47.4368 1.22936C47.4368 1.34566 47.4599 1.4608 47.5047 1.56814C47.5494 1.67547 47.615 1.77287 47.6977 1.85469C50.7377 3.45469 53.8683 4.85558 57.0897 6.05736C57.303 6.21736 60.999 8.90269 61.2123 8.95603C61.4257 9.00936 51.8203 13.4814 51.3163 13.692C50.5375 14.2648 49.6176 14.615 48.655 14.7054C48.415 14.7054 35.6177 10.18 34.5003 9.38269C35.487 8.87603 30.8817 11.7507 44.399 3.18269C44.5667 3.07377 44.6875 2.90603 44.7376 2.71249C44.7877 2.51896 44.7636 2.31367 44.6699 2.13704C44.5763 1.96041 44.4199 1.82526 44.2315 1.7582C44.0432 1.69113 43.8366 1.69702 43.6523 1.77469L35.511 5.87069C33.1963 6.93736 30.191 8.37203 31.919 10.3667C31.5149 14.1125 31.4168 17.885 31.6257 21.6467C30.9286 21.8438 30.2959 22.2211 29.791 22.7407C29.2862 23.2601 28.9272 23.9035 28.7501 24.6059C28.573 25.3083 28.5841 26.045 28.7823 26.7417C28.9805 27.4384 29.3588 28.0707 29.879 28.5747L29.8977 28.5907C32.0257 30.932 36.391 30.7747 37.2683 27.5267C37.4568 26.9274 37.5191 26.2956 37.4513 25.6711C37.3835 25.0465 37.187 24.4428 36.8744 23.8979C36.5618 23.3531 36.1396 22.8788 35.6347 22.5052C35.1297 22.1315 34.5528 21.8664 33.9403 21.7267C34.455 18.58 34.5643 15.38 34.2603 12.204C35.7003 13.0014 38.279 13.9587 44.1857 16.3C45.4363 16.7267 47.6443 18.3747 49.2923 17.8174C54.1999 15.8291 58.9118 13.3883 63.367 10.5267C63.7317 10.1316 63.9514 9.62433 63.9902 9.08802C64.029 8.55171 63.8844 8.01814 63.5803 7.57469ZM34.5003 23.9907C35.2203 24.868 34.927 27.66 33.7003 27.7134C32.479 27.7667 31.0417 25.612 31.335 24.4947C31.895 22.5267 34.3137 23.7747 34.5003 23.988" fill="#020202"/>
<path fill-rule="evenodd" clip-rule="evenodd" d="M58.0215 15.5827C56.7708 15.5827 57.1148 16.9134 56.8242 18.2414C56.5308 19.5747 54.9628 19.548 53.2055 20.3454C51.4508 21.1454 49.6402 22.3934 48.0428 23.004C45.3904 22.3728 42.8064 21.4823 40.3282 20.3454C39.9548 18.4814 40.3282 17.4707 39.2375 17.4707C39.1324 17.4707 39.0284 17.4914 38.9314 17.5316C38.8343 17.5718 38.7461 17.6307 38.6718 17.705C38.5975 17.7793 38.5386 17.8675 38.4984 17.9646C38.4582 18.0616 38.4375 18.1657 38.4375 18.2707V20.9294C38.4477 21.2512 38.5814 21.5568 38.8108 21.7827C40.1975 23.1907 46.7948 26.6494 48.4962 26.1987C50.6226 25.4075 52.6148 24.2941 54.4028 22.8974C55.7575 22.3107 57.0002 21.492 58.0748 20.4787C58.9548 19.3587 58.7682 18.348 58.7948 16.9134C58.876 16.7785 58.9194 16.6243 58.9207 16.4668C58.9219 16.3094 58.8809 16.1545 58.8019 16.0183C58.723 15.8821 58.6089 15.7696 58.4716 15.6925C58.3343 15.6155 58.1789 15.5793 58.0215 15.5827Z" fill="#020202"/>
</g>
<defs>
<clipPath id="clip0_2044_2130">
<rect width="64" height="64" fill="white" transform="translate(0 -0.00390625)"/>
</clipPath>
</defs>
</svg>
